<svg width="27" height="22" viewBox="0 0 27 22" fill="none" xmlns="http://www.w3.org/2000/svg">
<path d="M4.94739 18.1428C4.94739 18.9006 5.22464 19.6273 5.71816 20.1632C6.21168 20.699 6.88103 21 7.57897 21C8.2769 21 8.94626 20.699 9.43977 20.1632C9.93329 19.6273 10.2105 18.9006 10.2105 18.1428C10.2105 17.3851 9.93329 16.6584 9.43977 16.1225C8.94626 15.5867 8.2769 15.2857 7.57897 15.2857C6.88103 15.2857 6.21168 15.5867 5.71816 16.1225C5.22464 16.6584 4.94739 17.3851 4.94739 18.1428ZM18.1053 18.1428C18.1053 18.9006 18.3825 19.6273 18.8761 20.1632C19.3696 20.699 20.0389 21 20.7369 21C21.4348 21 22.1042 20.699 22.5977 20.1632C23.0912 19.6273 23.3684 18.9006 23.3684 18.1428C23.3684 17.3851 23.0912 16.6584 22.5977 16.1225C22.1042 15.5867 21.4348 15.2857 20.7369 15.2857C20.0389 15.2857 19.3696 15.5867 18.8761 16.1225C18.3825 16.6584 18.1053 17.3851 18.1053 18.1428Z" stroke="#505050" stroke-width="1.66667" stroke-linecap="round" stroke-linejoin="round"/>
<path d="M4.94737 18.1429H2.31579V12.4286M1 1H15.4737V18.1429M10.2105 18.1429H18.1053M23.3684 18.1429H26V9.57143M26 9.57143H15.4737M26 9.57143L22.0526 2.42857H15.4737M2.31579 6.71429H7.57895" stroke="#505050" stroke-width="1.66667" stroke-linecap="round" stroke-linejoin="round"/>
</svg>
