<svg width="25" height="25" viewBox="0 0 25 25" fill="none" xmlns="http://www.w3.org/2000/svg">
<path d="M18.4211 25C16.6009 25 15.0491 24.4194 13.7658 23.2583C12.4825 22.0972 11.8412 20.6937 11.8421 19.0476C11.8421 17.4008 12.4838 15.9968 13.7671 14.8357C15.0504 13.6746 16.6018 13.0944 18.4211 13.0952C20.2412 13.0952 21.793 13.6758 23.0763 14.8369C24.3596 15.998 25.0009 17.4016 25 19.0476C25 20.6944 24.3583 22.0984 23.075 23.2595C21.7917 24.4206 20.2404 25.0008 18.4211 25ZM20.625 21.875L21.5461 21.0417L19.0789 18.8095V15.4762H17.7632V19.2857L20.625 21.875ZM0 23.8095V2.38095H8.125C8.36623 1.68651 8.83772 1.11588 9.53947 0.66905C10.2412 0.222224 11.0088 -0.00079154 11.8421 2.11077e-06C12.7193 2.11077e-06 13.5035 0.223415 14.1947 0.67024C14.886 1.11707 15.3518 1.6873 15.5921 2.38095H23.6842V12.2024C23.2895 11.9444 22.8728 11.7262 22.4342 11.5476C21.9956 11.369 21.5351 11.2103 21.0526 11.0714V4.76191H18.4211V8.33333H5.26316V4.76191H2.63158V21.4286H9.60526C9.75877 21.8651 9.93421 22.2817 10.1316 22.6786C10.3289 23.0754 10.5702 23.4524 10.8553 23.8095H0ZM11.8421 4.76191C12.2149 4.76191 12.5276 4.64762 12.7803 4.41905C13.0329 4.19048 13.1588 3.90794 13.1579 3.57143C13.1579 3.23413 13.0316 2.95119 12.7789 2.72262C12.5263 2.49405 12.214 2.38016 11.8421 2.38095C11.4693 2.38095 11.1566 2.49524 10.9039 2.72381C10.6513 2.95238 10.5254 3.23492 10.5263 3.57143C10.5263 3.90873 10.6526 4.19167 10.9053 4.42024C11.1579 4.64881 11.4702 4.7627 11.8421 4.76191Z" fill="white"/>
</svg>
