<svg width="25" height="25" viewBox="0 0 25 25" fill="none" xmlns="http://www.w3.org/2000/svg">
<path d="M11.4796 0C11.2245 0 10.9694 0.125 10.7143 0.25L0.637755 5.75C0.255102 6 0 6.375 0 6.875V18.125C0 18.625 0.255102 19 0.637755 19.25L10.7143 24.75C10.9694 24.875 11.2245 25 11.4796 25C11.7347 25 11.9898 24.875 12.2449 24.75L13.3929 24.125C13.0102 23.375 12.8827 22.5 12.7551 21.625V13.25L20.4082 9V13.75C21.301 13.75 22.1939 13.875 22.9592 14.125V6.875C22.9592 6.375 22.7041 6 22.3214 5.75L12.2449 0.25C11.9898 0.125 11.7347 0 11.4796 0ZM11.4796 2.75L19.1327 6.875L16.5816 8.25L9.05612 4L11.4796 2.75ZM6.5051 5.375L14.0306 9.75L11.4796 11.125L3.82653 6.875L6.5051 5.375ZM2.55102 9L10.2041 13.25V21.625L2.55102 17.375V9ZM23.3418 17.25L18.75 21.75L16.7092 19.75L15.3061 21.25L18.8776 25L25 19L23.3418 17.25Z" fill="#505050"/>
</svg>
