<svg width="30" height="30" viewBox="0 0 30 30" fill="none" xmlns="http://www.w3.org/2000/svg">
<g id="QR">
<rect id="Rectangle 71" width="30" height="30" rx="5" fill="#116A5B"/>
<path id="Vector" d="M12.2727 5H6.81818C6.33597 5 5.87351 5.19156 5.53253 5.53253C5.19156 5.87351 5 6.33597 5 6.81818V12.2727C5 12.7549 5.19156 13.2174 5.53253 13.5584C5.87351 13.8994 6.33597 14.0909 6.81818 14.0909H12.2727C12.7549 14.0909 13.2174 13.8994 13.5584 13.5584C13.8994 13.2174 14.0909 12.7549 14.0909 12.2727V6.81818C14.0909 6.33597 13.8994 5.87351 13.5584 5.53253C13.2174 5.19156 12.7549 5 12.2727 5ZM12.2727 12.2727H6.81818V6.81818H12.2727V12.2727ZM12.2727 15.9091H6.81818C6.33597 15.9091 5.87351 16.1006 5.53253 16.4416C5.19156 16.7826 5 17.2451 5 17.7273V23.1818C5 23.664 5.19156 24.1265 5.53253 24.4675C5.87351 24.8084 6.33597 25 6.81818 25H12.2727C12.7549 25 13.2174 24.8084 13.5584 24.4675C13.8994 24.1265 14.0909 23.664 14.0909 23.1818V17.7273C14.0909 17.2451 13.8994 16.7826 13.5584 16.4416C13.2174 16.1006 12.7549 15.9091 12.2727 15.9091ZM12.2727 23.1818H6.81818V17.7273H12.2727V23.1818ZM23.1818 5H17.7273C17.2451 5 16.7826 5.19156 16.4416 5.53253C16.1006 5.87351 15.9091 6.33597 15.9091 6.81818V12.2727C15.9091 12.7549 16.1006 13.2174 16.4416 13.5584C16.7826 13.8994 17.2451 14.0909 17.7273 14.0909H23.1818C23.664 14.0909 24.1265 13.8994 24.4675 13.5584C24.8084 13.2174 25 12.7549 25 12.2727V6.81818C25 6.33597 24.8084 5.87351 24.4675 5.53253C24.1265 5.19156 23.664 5 23.1818 5ZM23.1818 12.2727H17.7273V6.81818H23.1818V12.2727ZM15.9091 20.4545V16.8182C15.9091 16.5771 16.0049 16.3458 16.1754 16.1754C16.3458 16.0049 16.5771 15.9091 16.8182 15.9091C17.0593 15.9091 17.2905 16.0049 17.461 16.1754C17.6315 16.3458 17.7273 16.5771 17.7273 16.8182V20.4545C17.7273 20.6957 17.6315 20.9269 17.461 21.0974C17.2905 21.2679 17.0593 21.3636 16.8182 21.3636C16.5771 21.3636 16.3458 21.2679 16.1754 21.0974C16.0049 20.9269 15.9091 20.6957 15.9091 20.4545ZM25 18.6364C25 18.8775 24.9042 19.1087 24.7337 19.2792C24.5632 19.4497 24.332 19.5455 24.0909 19.5455H21.3636V24.0909C21.3636 24.332 21.2679 24.5632 21.0974 24.7337C20.9269 24.9042 20.6957 25 20.4545 25H16.8182C16.5771 25 16.3458 24.9042 16.1754 24.7337C16.0049 24.5632 15.9091 24.332 15.9091 24.0909C15.9091 23.8498 16.0049 23.6186 16.1754 23.4481C16.3458 23.2776 16.5771 23.1818 16.8182 23.1818H19.5455V16.8182C19.5455 16.5771 19.6412 16.3458 19.8117 16.1754C19.9822 16.0049 20.2134 15.9091 20.4545 15.9091C20.6957 15.9091 20.9269 16.0049 21.0974 16.1754C21.2679 16.3458 21.3636 16.5771 21.3636 16.8182V17.7273H24.0909C24.332 17.7273 24.5632 17.8231 24.7337 17.9935C24.9042 18.164 25 18.3953 25 18.6364ZM25 22.2727V24.0909C25 24.332 24.9042 24.5632 24.7337 24.7337C24.5632 24.9042 24.332 25 24.0909 25C23.8498 25 23.6186 24.9042 23.4481 24.7337C23.2776 24.5632 23.1818 24.332 23.1818 24.0909V22.2727C23.1818 22.0316 23.2776 21.8004 23.4481 21.6299C23.6186 21.4594 23.8498 21.3636 24.0909 21.3636C24.332 21.3636 24.5632 21.4594 24.7337 21.6299C24.9042 21.8004 25 22.0316 25 22.2727Z" fill="white"/>
</g>
</svg>
