<svg width="15" height="14" viewBox="0 0 15 14" fill="none" xmlns="http://www.w3.org/2000/svg">
<rect width="15" height="14" fill="#1E1E1E"/>
<g id="ShopLists">
<rect width="1440" height="1024" transform="translate(-283 -91)" fill="#F1F5F5"/>
<g id="search">
<g id="Search">
<rect id="Rectangle 17" x="-15.5" y="-9.5" width="279" height="33" rx="16.5" fill="white" stroke="#116A5B"/>
<path id="Vector" d="M12.8203 13.7809L8.33897 9.32006C7.93885 9.63869 7.47871 9.89094 6.95855 10.0768C6.43839 10.2627 5.88488 10.3556 5.29804 10.3556C3.84425 10.3556 2.61401 9.8543 1.6073 8.85166C0.600591 7.84903 0.096969 6.62441 0.0964355 5.17781C0.0964355 3.73068 0.600057 2.50606 1.6073 1.50395C2.61454 0.501849 3.84479 0.000531057 5.29804 0C6.75182 0 7.98206 0.501318 8.98877 1.50395C9.99548 2.50659 10.4991 3.73121 10.4996 5.17781C10.4996 5.76197 10.4063 6.31294 10.2195 6.83073C10.0328 7.34851 9.77941 7.80654 9.45931 8.20484L13.9607 12.6856C14.1074 12.8317 14.1808 13.0109 14.1808 13.2233C14.1808 13.4358 14.1007 13.6216 13.9407 13.7809C13.794 13.927 13.6073 14 13.3805 14C13.1538 14 12.9671 13.927 12.8203 13.7809ZM5.29804 8.76245C6.29834 8.76245 7.14874 8.41381 7.84922 7.71653C8.5497 7.01925 8.89968 6.17301 8.89914 5.17781C8.89914 4.18208 8.5489 3.33557 7.84842 2.63829C7.14794 1.94101 6.29781 1.59264 5.29804 1.59317C4.29773 1.59317 3.44733 1.94181 2.74685 2.63909C2.04637 3.33637 1.69639 4.18261 1.69693 5.17781C1.69693 6.17354 2.04717 7.02005 2.74765 7.71733C3.44813 8.4146 4.29826 8.76298 5.29804 8.76245Z" fill="#116A5B"/>
</g>
</g>
</g>
</svg>
