<svg width="30" height="30" viewBox="0 0 30 30" fill="none" xmlns="http://www.w3.org/2000/svg">
<g id="share">
<rect id="Rectangle 74" width="30" height="30" rx="5" fill="#116A5B"/>
<path id="Vector" d="M20.8284 17.8543C20.2727 17.8541 19.7225 17.9496 19.2106 18.1349C18.6986 18.3203 18.2353 18.5919 17.8479 18.9336L13.0471 16.2884C13.4247 15.4583 13.4247 14.5368 13.0471 13.7066L17.8479 11.0615C18.5691 11.6947 19.5388 12.0758 20.5691 12.131C21.5994 12.1861 22.6169 11.9114 23.4243 11.36C24.2317 10.8085 24.7715 10.0198 24.9391 9.14656C25.1066 8.27336 24.89 7.37792 24.3311 6.63387C23.7723 5.88982 22.911 5.35016 21.9144 5.11952C20.9178 4.88887 19.8567 4.98368 18.937 5.38555C18.0173 5.78743 17.3044 6.46774 16.9365 7.2946C16.5687 8.12145 16.5721 9.03594 16.9461 9.86076L12.1452 12.5059C11.5671 11.9971 10.8251 11.6477 10.0141 11.5023C9.20314 11.3568 8.35998 11.422 7.59244 11.6895C6.8249 11.957 6.16784 12.4146 5.70526 13.0039C5.24269 13.5931 4.99561 14.2873 4.99561 14.9975C4.99561 15.7078 5.24269 16.4019 5.70526 16.9912C6.16784 17.5804 6.8249 18.038 7.59244 18.3055C8.35998 18.573 9.20314 18.6382 10.0141 18.4928C10.8251 18.3474 11.5671 17.9979 12.1452 17.4891L16.9461 20.1343C16.6245 20.8454 16.5769 21.626 16.8103 22.362C17.0437 23.0979 17.5458 23.7505 18.2432 24.2241C18.9405 24.6977 19.7964 24.9675 20.6855 24.9939C21.5747 25.0204 22.4503 24.8021 23.1843 24.3711C23.9183 23.94 24.4719 23.3189 24.7643 22.5986C25.0566 21.8783 25.0723 21.0966 24.8089 20.3682C24.5456 19.6397 24.0171 19.0026 23.3008 18.5502C22.5845 18.0979 21.7181 17.854 20.8284 17.8543ZM20.8284 6.42732C21.3228 6.42732 21.806 6.55298 22.217 6.78841C22.628 7.02383 22.9484 7.35845 23.1376 7.74995C23.3267 8.14145 23.3762 8.57225 23.2798 8.98786C23.1833 9.40348 22.9453 9.78524 22.5958 10.0849C22.2462 10.3845 21.8009 10.5886 21.316 10.6713C20.8312 10.7539 20.3287 10.7115 19.872 10.5493C19.4153 10.3872 19.0249 10.1125 18.7503 9.76021C18.4757 9.40787 18.3291 8.99363 18.3291 8.56987C18.3291 8.00163 18.5924 7.45667 19.0611 7.05486C19.5298 6.65305 20.1656 6.42732 20.8284 6.42732ZM9.16472 17.1401C8.6704 17.1401 8.18717 17.0144 7.77615 16.779C7.36513 16.5436 7.04478 16.2089 6.85561 15.8174C6.66644 15.4259 6.61694 14.9951 6.71338 14.5795C6.80982 14.1639 7.04786 13.7822 7.3974 13.4825C7.74695 13.1829 8.19229 12.9788 8.67712 12.8961C9.16195 12.8135 9.66449 12.8559 10.1212 13.0181C10.5779 13.1802 10.9682 13.4548 11.2429 13.8072C11.5175 14.1595 11.6641 14.5738 11.6641 14.9975C11.6641 15.5658 11.4008 16.1107 10.932 16.5125C10.4633 16.9143 9.8276 17.1401 9.16472 17.1401ZM20.8284 23.5677C20.3341 23.5677 19.8509 23.4421 19.4399 23.2066C19.0288 22.9712 18.7085 22.6366 18.5193 22.2451C18.3302 21.8536 18.2807 21.4228 18.3771 21.0072C18.4735 20.5916 18.7116 20.2098 19.0611 19.9102C19.4107 19.6105 19.856 19.4065 20.3408 19.3238C20.8257 19.2411 21.3282 19.2836 21.7849 19.4457C22.2416 19.6079 22.632 19.8825 22.9066 20.2348C23.1812 20.5872 23.3278 21.0014 23.3278 21.4252C23.3278 21.9934 23.0645 22.5384 22.5958 22.9402C22.127 23.342 21.4913 23.5677 20.8284 23.5677Z" fill="white"/>
</g>
</svg>
